<?xml version="1.0" encoding="utf-8"?>
<!-- Generator: Adobe Illustrator 16.0.0, SVG Export Plug-In . SVG Version: 6.00 Build 0)  -->
<!DOCTYPE svg PUBLIC "-//W3C//DTD SVG 1.1//EN" "http://www.w3.org/Graphics/SVG/1.1/DTD/svg11.dtd">
<svg version="1.1" id="Capa_1" xmlns="http://www.w3.org/2000/svg" xmlns:xlink="http://www.w3.org/1999/xlink" x="0px" y="0px"
	 width="258px" height="174px" viewBox="0 0 258 174" style="enable-background:new 0 0 258 174;" xml:space="preserve">
<style type="text/css">
<![CDATA[
	.st0{fill:#660000;}
	.st1{fill-rule:evenodd;clip-rule:evenodd;fill:#660000;}
]]>
</style>
<g>
	<path class="st0" d="M253,5v164H5V5H253 M258,0H0v174h258V0L258,0z"/>
</g>
<path class="st1" d="M141.118,83.933c2.244,2.109,3.969,3.652,5.606,5.284c10.156,10.13,20.294,20.281,30.435,30.425
	c2.37,2.373,2.363,2.625-0.065,5.064c-1.432,1.437-2.866,2.871-4.301,4.305c-2.644,2.64-2.772,2.643-5.335,0.078
	c-11.22-11.219-22.442-22.435-33.646-33.669c-0.507-0.508-0.859-1.171-1.42-1.951c-0.928,0.861-1.503,1.361-2.041,1.899
	c-11.325,11.319-22.645,22.644-33.968,33.963c-2.195,2.195-2.559,2.197-4.718,0.05c-1.645-1.635-3.284-3.273-4.917-4.917
	c-2.064-2.079-2.074-2.569-0.042-4.602c11.318-11.326,22.642-22.646,33.961-33.97c0.551-0.552,1.072-1.133,1.7-1.798
	c-0.635-0.67-1.159-1.25-1.711-1.802C109.386,71.02,98.114,59.75,86.846,48.478c-2.228-2.229-2.218-2.618,0.064-4.911
	c1.533-1.54,3.07-3.076,4.61-4.611c2.354-2.346,2.61-2.343,5.026,0.073c11.22,11.219,22.443,22.435,33.643,33.673
	c0.556,0.557,0.902,1.324,1.437,2.13c1.056-1.004,1.632-1.53,2.183-2.08c11.324-11.32,22.644-22.645,33.968-33.964
	c2.095-2.095,2.498-2.098,4.563-0.05c1.697,1.684,3.388,3.376,5.069,5.074c1.931,1.945,1.94,2.542,0.042,4.444
	c-11.318,11.327-22.638,22.651-33.973,33.958C142.921,82.771,142.194,83.159,141.118,83.933z"/>
</svg>
