<?xml version="1.0" encoding="utf-8"?>
<!-- Generator: Adobe Illustrator 16.0.0, SVG Export Plug-In . SVG Version: 6.00 Build 0)  -->
<!DOCTYPE svg PUBLIC "-//W3C//DTD SVG 1.1//EN" "http://www.w3.org/Graphics/SVG/1.1/DTD/svg11.dtd">
<svg version="1.1" id="Capa_1" xmlns="http://www.w3.org/2000/svg" xmlns:xlink="http://www.w3.org/1999/xlink" x="0px" y="0px"
	 width="131.496px" height="140.768px" viewBox="0 0 131.496 140.768" style="enable-background:new 0 0 131.496 140.768;"
	 xml:space="preserve">
<style type="text/css">
<![CDATA[
	.st0{fill:none;stroke:#FFFFFF;stroke-width:1.3;stroke-miterlimit:10;}
	.st1{fill:#FFFFFF;}
	.st2{fill:none;stroke:#FFFFFF;stroke-width:1.3;}
]]>
</style>
<g>
	<path class="st2" d="M71.103,76.283c-0.05-1.031-0.078-2.065-0.175-3.095c1.605-0.766,3.2-1.638,4.767-2.615
		c-0.406-2.502-1.174-4.94-2.114-7.298c-1.858,0.03-3.686,0.16-5.464,0.39c-0.421-0.95-0.997-1.814-1.532-2.7
		c-0.528-0.894-1.2-1.684-1.812-2.523c0.96-1.533,1.8-3.105,2.592-4.776c-1.686-1.889-3.647-3.508-5.704-4.974
		c-1.535,1.01-3.013,2.122-4.387,3.273c-0.871-0.566-1.811-1.003-2.748-1.45c-0.918-0.481-1.928-0.767-2.893-1.141
		c-0.017-1.836-0.167-3.595-0.409-5.428c-2.445-0.679-4.98-0.99-7.496-1.075c-0.742,1.654-1.377,3.367-1.908,5.105
		c-1.035,0.052-2.069,0.083-3.092,0.271c-1.027,0.139-2.046,0.321-3.047,0.609c-0.99-1.489-2.101-2.999-3.28-4.377
		c-2.401,0.821-4.746,1.83-6.897,3.171c0.289,1.826,0.65,3.568,1.147,5.317c-0.82,0.631-1.697,1.197-2.449,1.911
		c-0.764,0.695-1.551,1.37-2.227,2.157c-1.639-0.718-3.364-1.368-5.122-1.913c-1.563,1.984-2.994,4.092-4.088,6.384
		c1.229,1.381,2.491,2.663,3.827,3.858c-0.35,0.978-0.751,1.938-1.025,2.937c-0.242,1.01-0.582,2-0.704,3.031
		c-1.768,0.283-3.55,0.677-5.336,1.174c-0.274,2.511-0.274,5.04,0,7.556c1.786,0.497,3.568,0.89,5.336,1.176
		c0.125,1.031,0.466,2.019,0.704,3.027c0.274,1.001,0.68,1.959,1.027,2.938c-1.338,1.195-2.6,2.478-3.826,3.858
		c1.095,2.292,2.521,4.396,4.085,6.383c1.758-0.544,3.483-1.195,5.126-1.915c0.672,0.789,1.459,1.466,2.223,2.161
		c0.752,0.713,1.629,1.278,2.449,1.911c-0.497,1.748-0.854,3.49-1.147,5.317c2.151,1.339,4.496,2.349,6.897,3.167
		c1.18-1.375,2.29-2.888,3.28-4.371c1.001,0.285,2.022,0.465,3.047,0.604c1.025,0.192,2.06,0.223,3.092,0.273
		c0.531,1.738,1.166,3.452,1.908,5.106c2.516-0.085,5.053-0.396,7.496-1.076c0.246-1.832,0.396-3.59,0.409-5.427
		c0.969-0.374,1.975-0.66,2.893-1.141c0.938-0.447,1.881-0.884,2.748-1.454c1.374,1.155,2.855,2.268,4.387,3.277
		c2.06-1.468,4.019-3.088,5.704-4.975c-0.792-1.669-1.632-3.245-2.592-4.779c0.611-0.837,1.283-1.629,1.812-2.519
		c0.535-0.891,1.111-1.752,1.532-2.705c1.778,0.229,3.605,0.362,5.464,0.391c0.94-2.355,1.708-4.792,2.114-7.296
		c-1.566-0.978-3.161-1.848-4.767-2.615C71.024,78.35,71.053,77.315,71.103,76.283z M49.522,91.119
		c-2.801,1.272-6.012,1.785-9.093,1.296c-3.076-0.409-5.997-1.771-8.35-3.806c-2.36-2.037-4.1-4.76-4.977-7.726
		c-0.874-2.969-0.874-6.229,0-9.198c0.877-2.964,2.616-5.69,4.977-7.726c2.353-2.033,5.273-3.396,8.35-3.804
		c3.081-0.488,6.292,0.021,9.093,1.295c2.827,1.276,5.273,3.412,6.953,6.022c1.704,2.615,2.559,5.685,2.6,8.81
		c-0.041,3.126-0.896,6.197-2.6,8.811C54.796,87.707,52.35,89.842,49.522,91.119z"/>
	<path class="st0" d="M52.239,70.196c-1.16-1.805-2.852-3.283-4.805-4.167c-1.933-0.877-4.157-1.236-6.288-0.894
		c-2.126,0.281-4.142,1.221-5.767,2.63c-1.636,1.409-2.836,3.292-3.444,5.34c-0.604,2.05-0.604,4.31,0,6.36
		c0.608,2.044,1.809,3.931,3.444,5.339c1.629,1.409,3.645,2.35,5.767,2.629c2.131,0.343,4.355-0.016,6.288-0.893
		c1.95-0.885,3.645-2.362,4.805-4.166c1.179-1.809,1.768-3.926,1.802-6.092C54.007,74.12,53.418,72.004,52.239,70.196z"/>
</g>
<path class="st2" d="M118.027,48.081c-0.198-0.72-0.377-1.443-0.607-2.146c1.014-0.794,1.993-1.651,2.943-2.582
	c-0.673-1.695-1.594-3.289-2.623-4.796c-1.298,0.309-2.562,0.686-3.775,1.123c-0.443-0.604-0.984-1.119-1.497-1.66
	c-0.51-0.545-1.107-0.994-1.663-1.487c0.434-1.23,0.779-2.465,1.075-3.765c-1.478-1.062-3.106-1.892-4.783-2.603
	c-0.919,0.946-1.785,1.961-2.572,2.983c-0.698-0.264-1.427-0.425-2.153-0.591c-0.724-0.198-1.472-0.242-2.211-0.353
	c-0.299-1.289-0.676-2.5-1.132-3.752c-1.823-0.097-3.654,0.082-5.437,0.412c-0.261,1.28-0.443,2.582-0.544,3.887
	c-0.718,0.195-1.44,0.378-2.129,0.67c-0.701,0.259-1.388,0.545-2.044,0.902c-0.928-0.893-1.943-1.779-2.988-2.562
	c-1.559,0.946-3.049,2.022-4.35,3.298c0.486,1.239,1.008,2.406,1.631,3.56c-0.475,0.569-1.003,1.102-1.421,1.721
	c-0.431,0.609-0.878,1.204-1.23,1.865c-1.264-0.253-2.574-0.44-3.896-0.548c-0.789,1.641-1.466,3.343-1.877,5.122
	c1.074,0.78,2.163,1.48,3.288,2.117c-0.094,0.738-0.229,1.475-0.264,2.219c-0.012,0.746-0.097,1.498-0.021,2.239
	c-1.198,0.475-2.39,1.028-3.565,1.656c0.197,1.809,0.592,3.583,1.176,5.309c1.333,0.069,2.645,0.065,3.931-0.006
	c0.245,0.704,0.642,1.348,0.965,2.019c0.347,0.66,0.783,1.271,1.18,1.902c-0.755,1.047-1.44,2.145-2.088,3.305
	c1.126,1.439,2.456,2.698,3.864,3.848c1.15-0.652,2.261-1.379,3.306-2.141c0.593,0.45,1.25,0.802,1.898,1.173
	c0.636,0.384,1.339,0.643,2.013,0.959c-0.076,1.309-0.057,2.589,0.025,3.915c1.717,0.606,3.523,0.953,5.335,1.154
	c0.616-1.151,1.161-2.387,1.63-3.584c0.744,0.046,1.489,0.012,2.231-0.048c0.749-0.024,1.479-0.166,2.214-0.292
	c0.642,1.141,1.358,2.244,2.135,3.291c1.752-0.449,3.488-1.066,5.101-1.921c-0.116-1.327-0.282-2.588-0.557-3.881
	c0.622-0.411,1.28-0.77,1.853-1.25c0.588-0.46,1.182-0.912,1.707-1.446c1.141,0.594,2.355,1.147,3.588,1.616
	c1.22-1.35,2.343-2.793,3.235-4.381c-0.818-1.05-1.651-2.025-2.565-2.956c0.295-0.679,0.647-1.342,0.881-2.05
	c0.235-0.708,0.506-1.403,0.654-2.136c1.285-0.118,2.59-0.311,3.897-0.578c0.297-1.802,0.457-3.632,0.354-5.455
	c-1.256-0.44-2.51-0.809-3.758-1.095C118.294,49.543,118.152,48.812,118.027,48.081z M105.176,61.859
	c-1.771,1.331-3.946,2.189-6.188,2.327c-2.225,0.189-4.488-0.312-6.456-1.376c-1.976-1.064-3.62-2.705-4.698-4.652
	c-1.078-1.948-1.585-4.238-1.433-6.461c0.156-2.22,0.951-4.405,2.295-6.201c1.336-1.795,3.173-3.206,5.27-3.974
	c2.092-0.824,4.428-0.962,6.594-0.507c2.183,0.459,4.233,1.578,5.817,3.15c1.606,1.572,2.685,3.595,3.201,5.786
	c0.456,2.201,0.333,4.489-0.456,6.594C108.349,58.643,106.961,60.521,105.176,61.859z"/>
<g>
	<path class="st1" d="M129.496,2v136.768H2V2H129.496 M131.496,0H0v140.768h131.496V0L131.496,0z"/>
</g>
</svg>
