<?xml version="1.0" encoding="utf-8"?>
<!-- Generator: Adobe Illustrator 18.1.1, SVG Export Plug-In . SVG Version: 6.00 Build 0)  -->
<svg version="1.1" id="Capa_1" xmlns="http://www.w3.org/2000/svg" xmlns:xlink="http://www.w3.org/1999/xlink" x="0px" y="0px"
	 viewBox="0 0 65.1 42.8" enable-background="new 0 0 65.1 42.8" xml:space="preserve">
<path fill="#FFFFFF" d="M24,41.5l-1.5,1.4h-2.9L18,41.5v-2.1l-0.7-0.6l0.7-0.6V36l1.5-1.4h2.9l1.5,1.4l0,1.7h-1.2v-1.1l-0.8-0.8H20
	l-0.8,0.7v4.3l0.8,0.7h1.9l0.8-0.8V40h-1.6v-1.2H24V41.5z"/>
<path fill="#FFFFFF" d="M31.6,42.8h-1.3l-1.7-3.5h-1.5v3.5H26v-3.5l-0.7-0.6l0.7-0.6v-3.5h3.9l1.3,1.5v1.6l-1.3,1.5L31.6,42.8z
	 M30.1,37.3v-0.6l-0.7-0.8h-2.2v2.3h2.2L30.1,37.3z"/>
<path fill="#FFFFFF" d="M40.1,38.8l-0.7,0.6v2.1l-1.5,1.4H35l-1.5-1.4v-2.1l-0.7-0.6l0.7-0.6v-3.5h1.2v6.2l0.8,0.7h1.9l0.8-0.7v-6.2
	h1.2v3.5L40.1,38.8z"/>
<path fill="#FFFFFF" d="M47.8,42.8h-1.4l-2.7-3.6l-0.8,1v2.6h-1.2v-3.5l-0.7-0.6l0.7-0.6v-3.5h1.2v3.9l3.2-3.9h1.4l-3,3.7L47.8,42.8
	z"/>
<polygon fill="#FFFFFF" points="27.1,14 26.9,14 23,14 16.4,14 16.4,16.9 25.5,16.9 33.3,25.7 7.5,25.7 7.5,2.9 20,2.9 20,0 3.4,0 
	3.4,1.2 3.4,2.9 3.4,28.4 3.6,28.4 3.6,28.5 35.8,28.5 36.9,28.5 40,28.5 "/>
<polygon fill="#FFFFFF" points="35.5,14.5 35.7,14.5 39.6,14.5 46.2,14.5 46.2,11.6 37.1,11.6 29.3,2.9 55.1,2.9 55.1,25.7 
	42.6,25.7 42.6,28.5 59.2,28.5 59.2,27.3 59.2,25.7 59.2,0.1 59,0.1 59,0 26.8,0 25.7,0 22.7,0 "/>
<rect x="0" y="34.7" fill="#FFFFFF" width="15.1" height="1.6"/>
<rect x="50.1" y="41.2" fill="#FFFFFF" width="15.1" height="1.6"/>
<rect x="61.2" y="11.7" fill="#FFFFFF" width="3.7" height="5.1"/>
<rect x="0" y="6.6" fill="#FFFFFF" width="1.3" height="15.3"/>
</svg>
